<mxfile host="app.diagrams.net" modified="2024-01-14T08:05:33.160Z" agent="Mozilla/5.0 (Windows NT 10.0; Win64; x64) AppleWebKit/537.36 (KHTML, like Gecko) Chrome/120.0.0.0 Safari/537.36" etag="Ch4OOTRpgMvQh-g3ORdI" version="22.1.18" type="github">
  <diagram name="Page-1" id="hTWEsPfoXtYFRE-7J86U">
    <mxGraphModel dx="979" dy="445" grid="1" gridSize="10" guides="1" tooltips="1" connect="1" arrows="1" fold="1" page="1" pageScale="1" pageWidth="850" pageHeight="1100" math="1" shadow="0">
      <root>
        <mxCell id="0" />
        <mxCell id="1" parent="0" />
        <mxCell id="uoqmSEOZvt25hrZEfcyb-4" style="edgeStyle=orthogonalEdgeStyle;rounded=0;orthogonalLoop=1;jettySize=auto;html=1;" edge="1" parent="1" source="uoqmSEOZvt25hrZEfcyb-1" target="uoqmSEOZvt25hrZEfcyb-3">
          <mxGeometry relative="1" as="geometry">
            <Array as="points">
              <mxPoint x="280" y="300" />
              <mxPoint x="280" y="300" />
            </Array>
          </mxGeometry>
        </mxCell>
        <mxCell id="uoqmSEOZvt25hrZEfcyb-5" value="FFT" style="edgeLabel;html=1;align=center;verticalAlign=middle;resizable=0;points=[];fontSize=15;" vertex="1" connectable="0" parent="uoqmSEOZvt25hrZEfcyb-4">
          <mxGeometry x="-0.1054" y="-2" relative="1" as="geometry">
            <mxPoint x="4" y="-2" as="offset" />
          </mxGeometry>
        </mxCell>
        <mxCell id="uoqmSEOZvt25hrZEfcyb-1" value="\(x_1(t)\)" style="rounded=0;whiteSpace=wrap;html=1;fontSize=12;" vertex="1" parent="1">
          <mxGeometry x="160" y="280" width="80" height="40" as="geometry" />
        </mxCell>
        <mxCell id="uoqmSEOZvt25hrZEfcyb-7" style="edgeStyle=orthogonalEdgeStyle;rounded=0;orthogonalLoop=1;jettySize=auto;html=1;exitX=1;exitY=0.5;exitDx=0;exitDy=0;entryX=0;entryY=0.5;entryDx=0;entryDy=0;" edge="1" parent="1" source="uoqmSEOZvt25hrZEfcyb-2" target="uoqmSEOZvt25hrZEfcyb-6">
          <mxGeometry relative="1" as="geometry" />
        </mxCell>
        <mxCell id="uoqmSEOZvt25hrZEfcyb-8" value="FFT" style="edgeLabel;html=1;align=center;verticalAlign=middle;resizable=0;points=[];fontSize=15;" vertex="1" connectable="0" parent="uoqmSEOZvt25hrZEfcyb-7">
          <mxGeometry x="0.1146" y="-1" relative="1" as="geometry">
            <mxPoint x="-5" y="-1" as="offset" />
          </mxGeometry>
        </mxCell>
        <mxCell id="uoqmSEOZvt25hrZEfcyb-2" value="\(x_2(t)\)" style="rounded=0;whiteSpace=wrap;html=1;fontSize=12;" vertex="1" parent="1">
          <mxGeometry x="160" y="360" width="80" height="40" as="geometry" />
        </mxCell>
        <mxCell id="uoqmSEOZvt25hrZEfcyb-3" value="\(X_1(\omega)\)" style="rounded=0;whiteSpace=wrap;html=1;fontSize=12;" vertex="1" parent="1">
          <mxGeometry x="320" y="280" width="80" height="40" as="geometry" />
        </mxCell>
        <mxCell id="uoqmSEOZvt25hrZEfcyb-11" style="edgeStyle=orthogonalEdgeStyle;rounded=0;orthogonalLoop=1;jettySize=auto;html=1;exitX=1;exitY=0.5;exitDx=0;exitDy=0;entryX=0;entryY=0.5;entryDx=0;entryDy=0;" edge="1" parent="1" source="uoqmSEOZvt25hrZEfcyb-6" target="uoqmSEOZvt25hrZEfcyb-9">
          <mxGeometry relative="1" as="geometry" />
        </mxCell>
        <mxCell id="uoqmSEOZvt25hrZEfcyb-6" value="\(X_2(\omega)\)" style="rounded=0;whiteSpace=wrap;html=1;fontSize=12;" vertex="1" parent="1">
          <mxGeometry x="320" y="360" width="80" height="40" as="geometry" />
        </mxCell>
        <mxCell id="uoqmSEOZvt25hrZEfcyb-9" value="\((\cdot)\)*" style="rounded=0;whiteSpace=wrap;html=1;fontSize=12;" vertex="1" parent="1">
          <mxGeometry x="440" y="360" width="40" height="40" as="geometry" />
        </mxCell>
        <mxCell id="uoqmSEOZvt25hrZEfcyb-18" style="edgeStyle=orthogonalEdgeStyle;rounded=0;orthogonalLoop=1;jettySize=auto;html=1;exitX=1;exitY=0.5;exitDx=0;exitDy=0;entryX=0;entryY=0.5;entryDx=0;entryDy=0;" edge="1" parent="1" source="uoqmSEOZvt25hrZEfcyb-10" target="uoqmSEOZvt25hrZEfcyb-17">
          <mxGeometry relative="1" as="geometry" />
        </mxCell>
        <mxCell id="uoqmSEOZvt25hrZEfcyb-19" value="IFFT" style="edgeLabel;html=1;align=center;verticalAlign=middle;resizable=0;points=[];fontSize=15;" vertex="1" connectable="0" parent="uoqmSEOZvt25hrZEfcyb-18">
          <mxGeometry x="0.4277" y="2" relative="1" as="geometry">
            <mxPoint x="-17" y="2" as="offset" />
          </mxGeometry>
        </mxCell>
        <mxCell id="uoqmSEOZvt25hrZEfcyb-10" value="\(X_1(\omega)X_2^*(\omega)\)" style="rounded=0;whiteSpace=wrap;html=1;fontSize=12;" vertex="1" parent="1">
          <mxGeometry x="560" y="320" width="80" height="40" as="geometry" />
        </mxCell>
        <mxCell id="uoqmSEOZvt25hrZEfcyb-14" value="" style="endArrow=classic;html=1;rounded=0;exitX=1;exitY=0.5;exitDx=0;exitDy=0;entryX=0;entryY=0.5;entryDx=0;entryDy=0;" edge="1" parent="1" source="uoqmSEOZvt25hrZEfcyb-3" target="uoqmSEOZvt25hrZEfcyb-10">
          <mxGeometry width="50" height="50" relative="1" as="geometry">
            <mxPoint x="470" y="280" as="sourcePoint" />
            <mxPoint x="520" y="230" as="targetPoint" />
            <Array as="points">
              <mxPoint x="480" y="300" />
              <mxPoint x="520" y="340" />
            </Array>
          </mxGeometry>
        </mxCell>
        <mxCell id="uoqmSEOZvt25hrZEfcyb-16" value="" style="endArrow=classic;html=1;rounded=0;exitX=1;exitY=0.5;exitDx=0;exitDy=0;entryX=0;entryY=0.5;entryDx=0;entryDy=0;" edge="1" parent="1" source="uoqmSEOZvt25hrZEfcyb-9" target="uoqmSEOZvt25hrZEfcyb-10">
          <mxGeometry width="50" height="50" relative="1" as="geometry">
            <mxPoint x="510" y="430" as="sourcePoint" />
            <mxPoint x="560" y="380" as="targetPoint" />
            <Array as="points">
              <mxPoint x="520" y="340" />
            </Array>
          </mxGeometry>
        </mxCell>
        <mxCell id="uoqmSEOZvt25hrZEfcyb-20" style="edgeStyle=orthogonalEdgeStyle;rounded=0;orthogonalLoop=1;jettySize=auto;html=1;exitX=1;exitY=0.5;exitDx=0;exitDy=0;" edge="1" parent="1" source="uoqmSEOZvt25hrZEfcyb-17">
          <mxGeometry relative="1" as="geometry">
            <mxPoint x="860" y="340" as="targetPoint" />
          </mxGeometry>
        </mxCell>
        <mxCell id="uoqmSEOZvt25hrZEfcyb-21" value="\(\tau_{12}\)" style="edgeLabel;html=1;align=center;verticalAlign=middle;resizable=0;points=[];fontSize=15;" vertex="1" connectable="0" parent="uoqmSEOZvt25hrZEfcyb-20">
          <mxGeometry x="-0.0558" y="3" relative="1" as="geometry">
            <mxPoint y="-17" as="offset" />
          </mxGeometry>
        </mxCell>
        <mxCell id="uoqmSEOZvt25hrZEfcyb-17" value="Peak Detection" style="rounded=0;whiteSpace=wrap;html=1;fontSize=12;" vertex="1" parent="1">
          <mxGeometry x="720" y="320" width="80" height="40" as="geometry" />
        </mxCell>
      </root>
    </mxGraphModel>
  </diagram>
</mxfile>
